<svg width="324" height="170" viewBox="0 0 324 170" fill="none" xmlns="http://www.w3.org/2000/svg">
<path d="M99.869 58L62.621 147.6L46.621 147.728L56.605 122L27.805 58H47.005L64.797 100.624L81.309 58H99.869ZM134.993 56.208C155.729 56.208 169.169 71.312 169.169 90C169.169 108.688 155.729 123.792 134.993 123.792C114.513 123.792 100.945 108.688 100.945 90C100.945 71.184 114.513 56.08 134.993 56.208ZM134.993 71.568C125.009 71.568 118.993 79.248 119.121 90.128C119.121 100.88 125.265 108.56 134.993 108.56C144.977 108.56 150.993 101.008 150.993 90.128C150.993 79.12 144.977 71.568 134.993 71.568ZM244.534 32.4V122H226.614V115.088C220.086 121.232 212.79 123.792 205.878 123.792C189.622 123.792 178.23 108.816 178.23 90C178.23 71.184 189.494 56.208 206.134 56.208C212.918 56.208 220.342 59.152 226.614 65.04V32.4H244.534ZM209.846 108.688C214.966 108.688 221.494 106.128 226.614 101.008V79.12C221.494 74 214.966 71.44 209.718 71.44C201.142 71.44 196.278 78.992 196.406 90C196.278 101.136 201.142 108.688 209.846 108.688ZM275.486 32.4V100.112C275.486 106.896 278.942 109.328 283.678 109.328C285.086 109.328 286.622 108.944 288.286 108.432L292.638 120.208C287.774 122.512 282.526 123.792 277.662 123.792C266.782 123.92 257.566 117.776 257.566 102.416V32.4H275.486Z" fill="#4062E8"/>
</svg>
