<svg height="244" viewBox="0 0 1000 244" width="1000" xmlns="http://www.w3.org/2000/svg"><g fill="none" fill-rule="evenodd"><g fill="#1e1e1e" transform="translate(.000218 34.743192)"><path d="m389.856223 87.9424896.561844-1.9018798c4.556607-15.4315125 20.633595-26.9304117 36.597184-26.9304117 15.958433 0 32.030267 11.4988992 36.592029 26.9304117l.561844 1.9018798zm39.89093-55.262751h-5.45865c-36.339457 0-65.900703 29.5693343-65.900703 65.906062v5.4479324c0 36.336727 29.561246 65.900908 65.900703 65.900908h5.45865c24.726294 0 43.148595-8.231171 56.318426-25.167694.304118-.39687.432981-.901976.345354-1.39162-.082472-.463873-.350508-.860742-.747407-1.108141l-22.67479-13.72549c-.757717-.479336-1.757696-.304095-2.237068.381407-9.231768 13.199767-25.09742 14.581078-33.736417 14.581078-16.82955 0-33.483846-12.648274-37.128101-28.925066l-.402053-1.803951h76.328323l-.020618.015462h27.772623c.855652 0 1.597905-.63396 1.685532-1.44316.262881-2.417295.391745-4.880977.391745-7.313733v-5.4479324c0-36.3367277-29.556092-65.906062-65.895549-65.906062z"/><path d="m568.792408 169.934641h5.485785c30.846553 0 47.216012-19.071056 48.984285-21.246187 8.417397-10.38084 10.713051-21.637917 6.457819-31.699187-3.670978-8.705679-11.648891-14.390915-14.00659-15.921754-10.407997-6.7624934-32.868176-11.7931286-33.819528-12.0044565-.005171-.0051544-5.883905-1.3246652-9.503179-2.1699769-2.088838-.4896622-4.079439-.9174724-5.95112-1.3246652-7.952062-1.731858-13.106942-2.9792081-16.338436-5.9944966-2.171565-2.0256554-3.195302-4.5100469-2.962635-7.1903034.330906-3.8966805 3.738193-7.0253645 6.028677-8.5355859 5.516807-3.6389636 11.416223-4.9790918 22.413645-4.5203556 10.9664.4535818 21.751836 4.922394 29.600489 14.2878286.610107.7164532 1.685548.81954 2.466277.257717l20.852188-15.174375c.423972-.3144147.692832-.7731509.749706-1.3040479.056875-.5412056-.118919-1.0566395-.486017-1.4638323-12.729503-14.1280441-32.552782-23.2512247-50.50438-23.2512247h-5.480615c-31.389444 0-48.281112 20.3802577-48.984286 21.2461867-8.412226 10.375685-10.70788 21.6327621-6.462988 31.6991868 3.681318 8.7159878 11.659232 14.3909159 14.01693 15.9217539 10.330441 6.716104 32.868176 11.798283 33.819528 12.009611l.589425.128858c1.576969.35565 5.976972 1.350437 8.903414 2.025656 1.9906.46389 3.877793.876237 5.656407 1.273122 8.070981 1.773092 13.303417 3.061677 16.612467 6.035731 1.907875 1.706086 2.838545 3.834828 2.709285 6.149127-.206815 3.6235-3.510695 6.86558-5.837371 8.437653-6.240663 4.21625-11.75747 6.004806-22.325749 5.680082-10.862992-.335032-22.274045-5.288352-29.796965-14.591934-.341245-.422656-.853114-.649447-1.380494-.649447-.341246 0-.687662.092778-.992715.283488l-22.222341 13.69508c-.454995.278334-.749707.721608-.837604 1.24735-.093067.54636.056875 1.108183.413632 1.546302 12.750184 15.731044 32.237388 25.117096 52.133054 25.117096"/><path d="m735.169041 135.747865h-17.099342c-11.347791 0-20.578226-9.148223-20.578226-20.399249v-44.7567172c0-2.8862001 2.365849-5.2312377 5.28045-5.2312377h32.397118c1.27352 0 2.303726-1.0204778 2.303726-2.2780364v-23.1050624c0-1.2524047-1.030206-2.2728826-2.303726-2.2728826h-37.677568v-33.25314791c0-1.25240467-1.030206-2.27288255-2.298549-2.27288255l-26.500615 3.67475116c-1.268343 0-2.298549 1.02047788-2.298549 2.27288255v29.57839675h-14.852561c-1.273521 0-2.303726 1.0204779-2.303726 2.2728826v23.202987c0 1.2575586 1.030205 2.2780365 2.303726 2.2780365h9.572111c2.914601 0 5.28045 2.3450375 5.28045 5.2312376v48.6994726c0 24.264696 19.925936 44.009397 44.423085 44.009397h24.352196c1.27352 0 2.303726-1.020478 2.303726-2.267729v-23.110216c0-1.252405-1.030206-2.272883-2.303726-2.272883"/><path d="m86.8513759 141.875229h-.5760944c-31.2736965 0-56.7247245-25.687136-56.7247245-57.2612318 0-31.5688911 25.451028-57.2508216 56.7247245-57.2508216h.5760944c31.2839841 0 56.7298681 25.6819305 56.7298681 57.2508216 0 31.5740958-25.445884 57.2612318-56.7298681 57.2612318m86.2701381-57.2612318c0-46.6584566-37.610735-84.6139972-83.8371679-84.6139972h-5.4420347c-46.2315764 0-83.8423114 37.9555406-83.8423114 84.6139972 0 46.6636618 37.610735 84.6244078 83.8423114 84.6244078h5.4420347c4.5367435 0 9.2175105-.395588 13.8982779-1.176352l.216035-.04164c3.029639-.515305 6.048991-1.207582 8.970613-2.061217 3.106795-.468459 6.203302-.702688 9.25866-.702688 16.146075 0 31.294272 6.490751 42.666992 18.452056.447502.468458 1.131614.520509 1.58426.109307l20.00385-17.817035c.231466-.208203.37549-.510099.391476-.827609.004589-.171768-.02113-.5101-.288602-.791175-9.140355-9.816806-20.230173-17.119552-32.965974-21.715649l-2.047193-.733918 1.435093-1.650015c13.358189-15.433101 20.71368-35.196841 20.71368-55.6684728"/><path d="m213.505095 34.8583878c-10.211879 0-18.515988 8.3091699-18.515988 18.5210487 0 10.2068184 8.304109 18.5159883 18.515988 18.5159883s18.521049-8.3091699 18.521049-18.5159883c0-10.2118788-8.30917-18.5210487-18.521049-18.5210487"/><path d="m318.087848 34.8583878c-10.215543 0-18.523578 8.3091699-18.523578 18.5210487 0 10.2068184 8.308035 18.5159883 18.523578 18.5159883 10.205424 0 18.513459-8.3091699 18.513459-18.5159883 0-10.2118788-8.308035-18.5210487-18.513459-18.5210487"/><path d="m335.111512 165.421852c.821428 0 1.489795-.687413 1.489795-1.537496v-75.1799004c0-.4092994-.153061-.8028565-.438775-1.0967124-.280612-.2833612-.658163-.440784-1.05102-.440784h-.010204l-26.372441.2308868c-.816326.0052475-1.474489.697908-1.474489 1.5374964l-.045919 14.8974476c-.05102 1.537497-.173469 2.98054-.397959 4.518036-.117347.829094-.193877 1.332847-.295918 1.8366-.346939 1.731651-.770408 3.321622-1.290816 4.838128l-.158163.414547c-3.913264 10.877918-12.464282 19.50469-23.515299 23.812828-8.464283 3.494787-17.392852 4.098241-25.801012 1.747394-18.469382-4.334376-31.408154-20.003196-31.408154-38.085832l-.030612-3.5839938c-.010204-1.9467957-.030612-4.0929938-.030612-5.0375308v-5.6147479c0-.8395885-.668367-1.532249-1.489796-1.532249h-26.311216c-.821428 0-1.489795.6926605-1.489795 1.532249v21.0421865l.040816.73464c.994898 33.352652 26.806114 59.479596 58.760186 59.479596 12.948975 0 25.21938-4.308139 35.499989-12.462642 3.102039-2.455796 6.984691-3.090735 10.627547-1.742146 3.693877 1.359084 6.418366 4.502293 7.295916 8.40638.142857.640186.632653 1.285619 1.397959 1.285619z"/></g><g transform="translate(757.080828 .974129)"><path d="m210.737566 20.3585805-148.626757-20.02272962c-20.3222443-2.73342554-39.0116818 11.51759082-41.7554173 31.84001552l-20.01738482 148.6332436c-2.7437355 20.322424 11.51748862 39.017195 31.83973292 41.755788l148.6319242 20.017562c20.317077 2.738593 39.016849-11.517591 41.75025-31.840015l20.022552-148.6280765c2.738569-20.3275919-11.517488-39.0171953-31.8449-41.755788" fill="#c8ff04"/><path d="m86.3257691 89.7326342 64.1858689 115.2086608c.85283 1.526593 2.402485 2.582272 4.139346 2.820317l26.146525 3.544802c.655223.087973 1.320846-.082798 1.856465-.48644.530419-.408817.878831-.99358.967235-1.655966l21.149147-155.0449929c.088403-.6623864-.083203-1.3195979-.488817-1.847437-.405614-.5330141-.988035-.8693822-1.648458-.9573554l-25.714909-3.4878784c-.681225-.0827983-1.320847.0776234-1.856466.4812651-.530419.4036417-.873631.9935796-.967234 1.655966l-14.227703 104.3103346-64.1858692-115.2086609c-.84763-1.5265937-2.3920846-2.5874469-4.128946-2.8151422l-26.1621248-3.5499772c-.6760239-.0827983-1.3156465.0879732-1.8512654.48644-.5304188.4036418-.8736309.9935797-.9672342 1.6559661l-21.1543478 155.0449932c-.0884032.657211.0832029 1.314423.4940174 1.847437.4056144.527839.988035.869382 1.6484583.957355l25.7253094 3.487879c.650023.077623 1.3104463-.082799 1.8408651-.481266.5356189-.408816.878831-.993579.9672342-1.655966z" fill="#1e1e1e"/></g></g></svg>