<svg width="80" height="80" viewBox="0 0 80 80" fill="none" xmlns="http://www.w3.org/2000/svg">
<path fill-rule="evenodd" clip-rule="evenodd" d="M40.0001 79.65C50.4496 79.65 60.4712 75.499 67.8601 68.11C75.249 60.7211 79.4001 50.6995 79.4001 40.25C79.4001 29.8005 75.249 19.7789 67.8601 12.39C60.4712 5.00107 50.4496 0.850006 40.0001 0.850006C29.5506 0.850006 19.529 5.00107 12.1401 12.39C4.75116 19.7789 0.600098 29.8005 0.600098 40.25C0.600098 50.6995 4.75116 60.7211 12.1401 68.11C19.529 75.499 29.5506 79.65 40.0001 79.65V79.65ZM58.2571 33.882C59.1542 32.9531 59.6506 31.7091 59.6394 30.4177C59.6282 29.1264 59.1102 27.8912 58.1971 26.978C57.2839 26.0649 56.0487 25.5469 54.7574 25.5357C53.4661 25.5245 52.222 26.0209 51.2931 26.918L35.0751 43.1361L28.7071 36.768C27.7782 35.8709 26.5341 35.3745 25.2428 35.3857C23.9515 35.3969 22.7163 35.9149 21.8031 36.828C20.89 37.7412 20.372 38.9764 20.3608 40.2677C20.3496 41.5591 20.846 42.8031 21.7431 43.732L31.5931 53.582C32.5167 54.5053 33.7692 55.024 35.0751 55.024C36.381 55.024 37.6335 54.5053 38.5571 53.582L58.2571 33.882V33.882Z" fill="#364FC7"/>
</svg>
