<svg width="136" height="136" viewBox="0 0 136 136" fill="none" xmlns="http://www.w3.org/2000/svg">
<path fill-rule="evenodd" clip-rule="evenodd" d="M68 136C86.0347 136 103.331 128.836 116.083 116.083C128.836 103.331 136 86.0347 136 68C136 49.9653 128.836 32.6692 116.083 19.9167C103.331 7.16427 86.0347 0 68 0C49.9653 0 32.6692 7.16427 19.9167 19.9167C7.16427 32.6692 0 49.9653 0 68C0 86.0347 7.16427 103.331 19.9167 116.083C32.6692 128.836 49.9653 136 68 136ZM57.0095 44.9905C55.4064 43.4422 53.2593 42.5854 51.0306 42.6048C48.8019 42.6241 46.67 43.5181 45.094 45.094C43.5181 46.67 42.6241 48.8019 42.6048 51.0306C42.5854 53.2593 43.4422 55.4064 44.9905 57.0095L55.981 68L44.9905 78.9905C44.1787 79.7746 43.5311 80.7125 43.0856 81.7496C42.6402 82.7866 42.4057 83.902 42.3959 85.0306C42.3861 86.1592 42.6011 87.2785 43.0285 88.3231C43.4559 89.3677 44.0871 90.3168 44.8851 91.1149C45.6832 91.9129 46.6323 92.5441 47.6769 92.9715C48.7215 93.3989 49.8408 93.6139 50.9694 93.6041C52.098 93.5943 53.2134 93.3598 54.2504 92.9144C55.2875 92.4689 56.2254 91.8213 57.0095 91.0095L68 80.019L78.9905 91.0095C80.5936 92.5578 82.7407 93.4146 84.9694 93.3952C87.1981 93.3759 89.33 92.4819 90.906 90.906C92.4819 89.33 93.3759 87.1981 93.3952 84.9694C93.4146 82.7407 92.5578 80.5936 91.0095 78.9905L80.019 68L91.0095 57.0095C92.5578 55.4064 93.4146 53.2593 93.3952 51.0306C93.3759 48.8019 92.4819 46.67 90.906 45.094C89.33 43.5181 87.1981 42.6241 84.9694 42.6048C82.7407 42.5854 80.5936 43.4422 78.9905 44.9905L68 55.981L57.0095 44.9905Z" fill="#FA5252"/>
</svg>
