<svg width="136" height="136" viewBox="0 0 136 136" fill="none" xmlns="http://www.w3.org/2000/svg">
<path fill-rule="evenodd" clip-rule="evenodd" d="M68 136C86.0347 136 103.331 128.836 116.083 116.083C128.836 103.331 136 86.0347 136 68C136 49.9653 128.836 32.6692 116.083 19.9167C103.331 7.16427 86.0347 0 68 0C49.9653 0 32.6692 7.16427 19.9167 19.9167C7.16427 32.6692 0 49.9653 0 68C0 86.0347 7.16427 103.331 19.9167 116.083C32.6692 128.836 49.9653 136 68 136ZM76.5 34C76.5 31.7457 75.6045 29.5837 74.0104 27.9896C72.4163 26.3955 70.2543 25.5 68 25.5C65.7457 25.5 63.5837 26.3955 61.9896 27.9896C60.3955 29.5837 59.5 31.7457 59.5 34V68C59.5005 70.2542 60.3963 72.4158 61.9905 74.0095L86.0285 98.056C86.8182 98.8457 87.7558 99.4722 88.7876 99.8996C89.8195 100.327 90.9254 100.547 92.0423 100.547C93.1591 100.547 94.265 100.327 95.2969 99.8996C96.3287 99.4722 97.2663 98.8457 98.056 98.056C98.8457 97.2663 99.4722 96.3287 99.8996 95.2969C100.327 94.265 100.547 93.1591 100.547 92.0423C100.547 90.9254 100.327 89.8195 99.8996 88.7876C99.4722 87.7558 98.8457 86.8182 98.056 86.0285L76.5 64.481V34Z" fill="#FFD43B"/>
</svg>
