<svg width="136" height="136" viewBox="0 0 136 136" fill="none" xmlns="http://www.w3.org/2000/svg">
<path fill-rule="evenodd" clip-rule="evenodd" d="M68 136C86.0347 136 103.331 128.836 116.083 116.083C128.836 103.331 136 86.0347 136 68C136 49.9653 128.836 32.6692 116.083 19.9167C103.331 7.16427 86.0347 0 68 0C49.9653 0 32.6692 7.16427 19.9167 19.9167C7.16427 32.6692 0 49.9653 0 68C0 86.0347 7.16427 103.331 19.9167 116.083C32.6692 128.836 49.9653 136 68 136ZM99.5095 57.0095C101.058 55.4064 101.915 53.2593 101.895 51.0306C101.876 48.8019 100.982 46.67 99.406 45.094C97.83 43.5181 95.6981 42.6241 93.4694 42.6048C91.2407 42.5854 89.0936 43.4422 87.4905 44.9905L59.5 72.981L48.5095 61.9905C46.9064 60.4422 44.7593 59.5854 42.5306 59.6048C40.3019 59.6241 38.17 60.5181 36.594 62.094C35.0181 63.67 34.1241 65.8019 34.1048 68.0306C34.0854 70.2593 34.9422 72.4064 36.4905 74.0095L53.4905 91.0095C55.0845 92.603 57.2461 93.4982 59.5 93.4982C61.7539 93.4982 63.9155 92.603 65.5095 91.0095L99.5095 57.0095Z" fill="#2B8A3E"/>
</svg>
